<?xml version="1.0" standalone="no"?>
<!DOCTYPE svg PUBLIC "-//W3C//DTD SVG 1.1//EN" "http://www.w3.org/Graphics/SVG/1.1/DTD/svg11.dtd" >
<!--
2013-9-30: Created.
-->
<svg>
<metadata>
Created by iconfont
</metadata>
<defs>

<font id="iconfont" horiz-adv-x="1024" >
  <font-face
    font-family="iconfont"
    font-weight="500"
    font-stretch="normal"
    units-per-em="1024"
    ascent="896"
    descent="-128"
  />
    <missing-glyph />
    
    <glyph glyph-name="zhuanfaxian" unicode="&#58956;" d="M183.466667 102.4h-6.4c-25.6 4.266667-42.666667 27.733333-40.533334 51.2 17.066667 153.6 70.4 266.666667 162.133334 337.066667 66.133333 51.2 147.2 81.066667 245.333333 85.333333h6.4v85.333333c0 12.8 6.4 27.733333 14.933333 36.266667 10.666667 10.666667 25.6 17.066667 40.533334 17.066667s27.733333-6.4 38.4-14.933334l219.733333-224c36.266667-36.266667 36.266667-93.866667 0-130.133333L642.133333 123.733333c-8.533333-10.666667-23.466667-17.066667-36.266666-17.066666h-2.133334c-29.866667 0-53.333333 23.466667-55.466666 53.333333v91.733333h-8.533334c-85.333333 0-238.933333-17.066667-317.866666-128-8.533333-12.8-23.466667-21.333333-38.4-21.333333z m356.266666 200.533333H573.866667c14.933333 0 25.6-10.666667 25.6-25.6v-121.6L825.6 384c14.933333 17.066667 14.933333 40.533333 0 57.6L601.6 669.866667v-117.333334c0-14.933333-10.666667-25.6-25.6-25.6-149.333333 0-337.066667-59.733333-381.866667-339.2l-2.133333-19.2 12.8 14.933334c96 104.533333 251.733333 119.466667 334.933333 119.466666z"  horiz-adv-x="1024" />

    
    <glyph glyph-name="xiaoxi1" unicode="&#58955;" d="M413.866667 21.333333c21.333333-34.133333 57.6-53.333333 98.133333-53.333333 40.533333 0 76.8 21.333333 98.133333 53.333333H682.666667c-36.266667-93.866667-140.8-140.8-234.666667-106.666666-49.066667 19.2-87.466667 57.6-106.666667 106.666666h72.533334zM512 864c53.333333 0 96-42.666667 96-96 0-14.933333-4.266667-32-10.666667-44.8 117.333333-36.266667 202.666667-145.066667 202.666667-275.2v-241.066667l93.866667-78.933333c17.066667-14.933333 21.333333-42.666667 6.4-59.733333-8.533333-10.666667-19.2-14.933333-32-14.933334H157.866667c-23.466667 0-42.666667 19.2-42.666667 42.666667 0 12.8 6.4 25.6 14.933333 32l93.866667 78.933333V448c0 130.133333 85.333333 238.933333 202.666667 275.2-25.6 46.933333-6.4 104.533333 40.533333 130.133333 14.933333 6.4 29.866667 10.666667 44.8 10.666667z m0-192c-123.733333 0-224-100.266667-224-224v-270.933333l-72.533333-59.733334h590.933333l-72.533333 59.733334V448c2.133333 123.733333-98.133333 224-221.866667 224z m0 128c-17.066667 0-32-14.933333-32-32s14.933333-32 32-32 32 14.933333 32 32-14.933333 32-32 32z"  horiz-adv-x="1024" />

    
    <glyph glyph-name="sousuo" unicode="&#58954;" d="M644.266667 281.6l162.133333-162.133333c8.533333-8.533333 8.533333-21.333333 0-29.866667-8.533333-8.533333-21.333333-8.533333-29.866667 0l-162.133333 162.133333C567.466667 213.333333 512 192 448 192c-140.8 0-256 115.2-256 256S307.2 704 448 704c115.2 0 213.333333-76.8 247.466667-187.733333 4.266667-12.8-4.266667-21.333333-12.8-25.6-12.8-4.266667-21.333333 4.266667-25.6 12.8-25.6 89.6-110.933333 153.6-204.8 153.6-119.466667 0-213.333333-93.866667-213.333334-213.333334s93.866667-213.333333 213.333334-213.333333c98.133333 0 179.2 64 204.8 153.6 4.266667 12.8 17.066667 17.066667 25.6 12.8 12.8-4.266667 17.066667-17.066667 12.8-25.6-12.8-29.866667-29.866667-59.733333-51.2-89.6z"  horiz-adv-x="1024" />

    
    <glyph glyph-name="chihe-2" unicode="&#58953;" d="M556.8 153.8H341.9c-52.6 0-95.2 42.6-95.2 95.2V478.6H652V249c0-52.6-42.6-95.2-95.2-95.2zM556.5 144.2H342.2c-58 0-105.1 47.2-105.1 105.1v239h424.6v-239c-0.1-58-47.2-105.1-105.2-105.1zM256.4 468.9v-219.6c0-47.3 38.5-85.8 85.8-85.8h214.3c47.3 0 85.8 38.5 85.8 85.8V468.9H256.4zM725 214.7c-3.1 0-6.1 1.5-8 4.2-3 4.4-1.9 10.4 2.6 13.4 30.1 20.4 48.1 54.3 48.1 90.6 0 60.4-49.1 109.5-109.5 109.5-5.3 0-9.7 4.3-9.7 9.7s4.3 9.7 9.7 9.7c71 0 128.8-57.8 128.8-128.8 0-42.7-21.1-82.6-56.5-106.6-1.8-1.2-3.7-1.7-5.5-1.7zM314.2 534.6c-5.3 0-9.7 4.3-9.7 9.7V644.6c0 5.3 4.3 9.7 9.7 9.7 5.3 0 9.7-4.3 9.7-9.7v-100.4c0-5.3-4.3-9.6-9.7-9.6z m118.7-26.3c-5.3 0-9.7 4.3-9.7 9.7V690.5c0 5.3 4.3 9.7 9.7 9.7 5.3 0 9.7-4.3 9.7-9.7V518c0-5.4-4.3-9.7-9.7-9.7z m124.4 41.2c-5.3 0-9.7 4.3-9.7 9.7v70.6c0 5.3 4.3 9.7 9.7 9.7 5.3 0 9.7-4.3 9.7-9.7v-70.6c0-5.4-4.4-9.7-9.7-9.7zM609.1 67.8H289.7c-5.3 0-9.7 4.3-9.7 9.7s4.3 9.7 9.7 9.7h319.4c5.3 0 9.7-4.3 9.7-9.7s-4.4-9.7-9.7-9.7z"  horiz-adv-x="1024" />

    
    <glyph glyph-name="saoyisao2" unicode="&#58952;" d="M906.752 354.304H117.248c-17.92 0-31.744 14.336-31.744 31.744 0 17.92 14.336 31.744 31.744 31.744h789.504c17.92 0 31.744-14.336 31.744-31.744 0.512-17.408-13.824-31.744-31.744-31.744zM378.88-56.32H223.232C151.04-56.32 92.16 2.048 92.16 74.752V220.16c0 17.92 14.336 31.744 31.744 31.744s31.744-14.336 31.744-31.744v-145.408c0-36.864 30.208-67.072 67.072-67.072H378.88c17.92 0 31.744-14.336 31.744-31.744S396.8-56.32 378.88-56.32z m417.792 0h-156.16c-17.92 0-31.744 14.336-31.744 31.744s14.336 31.744 31.744 31.744h156.16c36.864 0 67.072 30.208 67.072 67.072v145.408c0 17.92 14.336 31.744 31.744 31.744s31.744-14.336 31.744-31.744v-145.408c0.512-72.192-58.368-130.56-130.56-130.56zM124.416 516.096c-17.92 0-31.744 14.336-31.744 31.744V693.248C92.16 765.952 151.04 824.32 223.232 824.32h156.16c17.92 0 31.744-14.336 31.744-32.256s-14.336-31.744-31.744-31.744H223.232c-36.864 0-67.072-30.208-67.072-67.072V547.84c0-17.408-14.336-31.744-31.744-31.744z m771.072 0c-17.92 0-31.744 14.336-31.744 31.744V693.248c0 36.864-30.208 67.072-67.072 67.072h-156.16c-17.92 0-31.744 14.336-31.744 31.744s14.336 32.256 31.744 32.256h156.16c72.192 0 131.072-58.88 131.072-131.072V547.84c0-17.408-14.336-31.744-32.256-31.744z"  horiz-adv-x="1024" />

    
    <glyph glyph-name="saoyisao" unicode="&#58951;" d="M906.666667 354.133333h-789.333334c-17.066667 0-32 14.933333-32 32s14.933333 32 32 32h789.333334c17.066667 0 32-14.933333 32-32s-14.933333-32-32-32zM379.733333-55.466667h-155.733333c-72.533333 0-130.133333 59.733333-130.133333 130.133334v145.066666c0 17.066667 14.933333 32 32 32s32-14.933333 32-32v-145.066666c0-36.266667 29.866667-66.133333 66.133333-66.133334h155.733333c17.066667 0 32-14.933333 32-32 0-19.2-14.933333-32-32-32z m416 0H640c-17.066667 0-32 14.933333-32 32s14.933333 32 32 32h155.733333c36.266667 0 66.133333 29.866667 66.133334 66.133334v145.066666c0 17.066667 14.933333 32 32 32s32-14.933333 32-32v-145.066666c2.133333-72.533333-57.6-130.133333-130.133334-130.133334zM123.733333 516.266667c-17.066667 0-32 14.933333-32 32V693.333333c0 72.533333 59.733333 130.133333 130.133334 130.133334h155.733333c17.066667 0 32-14.933333 32-32s-14.933333-32-32-32h-155.733333c-36.266667 0-66.133333-29.866667-66.133334-66.133334v-145.066666c0-17.066667-14.933333-32-32-32z m772.266667 0c-17.066667 0-32 14.933333-32 32V693.333333c0 36.266667-29.866667 66.133333-66.133333 66.133334H640c-17.066667 0-32 14.933333-32 32s14.933333 32 32 32h155.733333c72.533333 0 130.133333-59.733333 130.133334-130.133334v-145.066666c2.133333-17.066667-12.8-32-29.866667-32z"  horiz-adv-x="1024" />

    
    <glyph glyph-name="shenghuofuwu-2" unicode="&#58950;" d="M960-128H0v64h64V416c0 54.4 41.6 96 96 96h384c54.4 0 96-41.6 96-96v-480h32V448c0 54.4-41.6 96-96 96H384V800c0 54.4 41.6 96 96 96h384c54.4 0 96-41.6 96-96v-864h64v-64h-64zM320 384H192v-64h128v64z m0-128H192v-64h128v64z m0-128H192v-64h128v64z m192 256H384v-64h128v64z m0-128H384v-64h128v64z m0-128H384v-64h128v64z m128 640H512v-64h128v64z m0-128H512v-64h128v64z m192 128H704v-64h128v64z m0-128H704v-64h128v64z"  horiz-adv-x="1024" />

    
    <glyph glyph-name="pinpaiqingcang" unicode="&#58949;" d="M920.074 35.174l-96.573 601.053c-5.642 29.573-30.413 50.857-59.187 50.857h-7.66l96.18-588.642c7.597-39.152-21.454-75.678-60.191-75.678H102.927c-0.056-34.11 26.169-63.268 60.186-63.268h697.78c56.053 0 73.22 24.606 59.181 75.678zM760.32 702.172H263.68a5.12 5.12 0 0 0-5.12 5.12V825.052a5.12 5.12 0 0 0 5.12 5.12h496.64a5.12 5.12 0 0 0 5.12-5.12v-117.76a5.12 5.12 0 0 0-5.12-5.12zM876.452-77.358H147.553c-24.847 0-48.348 11.192-64.476 30.7-16.901 20.438-23.741 47.262-18.795 73.646l100.946 626.309c7.833 40.934 42.828 70.645 83.21 70.645h527.13c40.386 0 75.381-29.711 83.21-70.65l0.107-0.625 100.833-625.685c4.951-26.378-1.894-53.207-18.8-73.65-16.128-19.503-39.624-30.69-64.466-30.69zM208.046 645.396l-100.94-626.263c-2.622-13.696 0.854-27.56 9.522-38.057 7.947-9.61 18.924-14.899 30.92-14.899h728.899c11.99 0 22.968 5.29 30.914 14.9 8.674 10.49 12.145 24.36 9.529 38.056l-0.113 0.625-100.823 625.633c-4.014 20.301-20.956 35.01-40.392 35.01h-527.13c-19.425 0-36.372-14.704-40.386-35.005zM512 206.618c-102.569 0-211.574 74.147-211.574 211.573h43.54c0-109.143 86.575-168.033 168.034-168.033s168.033 58.89 168.033 168.033h43.54c0-137.42-109.01-211.573-211.573-211.573z"  horiz-adv-x="1024" />

    
    <glyph glyph-name="chihewanle1" unicode="&#58948;" d="M473.6 695.466667v-181.333334H448V695.466667h-78.933333v-181.333334h-25.6V695.466667h-51.2l-25.6-51.2v-181.333334h104.533333V384h-25.6v-285.866667l27.733333-25.6H448l25.6 25.6V384H448v78.933333h104.533333v181.333334l-25.6 51.2h-53.333333z m215.466667 0L629.333333 618.666667v-285.866667h78.933334v-260.266667h51.2V695.466667h-70.4z"  horiz-adv-x="1024" />

    
    <glyph glyph-name="zhuanfa" unicode="&#58947;" d="M512-128C230.4-128 0 102.4 0 384S230.4 896 512 896c21.333333 0 38.4-17.066667 38.4-38.4S533.333333 817.066667 512 817.066667C273.066667 817.066667 78.933333 622.933333 78.933333 384S273.066667-49.066667 512-49.066667 945.066667 145.066667 945.066667 384c0 21.333333 19.2 38.4 40.533333 38.4 21.333333 0 36.266667-17.066667 38.4-38.4 0-281.6-230.4-512-512-512zM840.533333 405.333333c-55.466667-55.466667-102.4-8.533333-64 32l128 198.4c-200.533333 4.266667-320-70.4-369.066666-136.533333-36.266667-49.066667-57.6-164.266667-66.133334-194.133333-6.4-25.6-27.733333-42.666667-51.2-38.4-27.733333 6.4-42.666667 46.933333-34.133333 74.666666 2.133333 4.266667 27.733333 128 85.333333 202.666667 49.066667 66.133333 147.2 151.466667 373.333334 162.133333l-149.333334 91.733334c-23.466667 14.933333-36.266667 40.533333-12.8 72.533333 14.933333 23.466667 44.8 4.266667 68.266667-10.666667L994.133333 704c23.466667-14.933333 29.866667-46.933333 12.8-70.4L840.533333 405.333333z m61.866667 230.4c-2.133333 0-8.533333 0 0 0z m0 0z"  horiz-adv-x="1024" />

    
    <glyph glyph-name="jindutiaoshouyidaozhang" unicode="&#58946;" d="M692.8 312c25.6 0 44.8-20.8 44.8-44.8s-20.8-44.8-44.8-44.8h-136v-99.2c0-25.6-20.8-44.8-44.8-44.8-25.6 0-44.8 20.8-44.8 44.8v99.2h-136c-25.6 0-44.8 20.8-44.8 44.8s20.8 44.8 44.8 44.8h136v57.6h-136c-25.6 0-44.8 20.8-44.8 44.8 0 25.6 20.8 44.8 44.8 44.8h96l-105.6 160c-14.4 20.8-8 49.6 12.8 62.4 20.8 14.4 49.6 8 62.4-12.8l113.6-169.6L624 668.8c14.4 20.8 41.6 27.2 62.4 12.8 20.8-14.4 27.2-41.6 12.8-62.4l-105.6-160h100.8c25.6 0 44.8-20.8 44.8-44.8 0-25.6-20.8-44.8-44.8-44.8h-136v-57.6h134.4zM512 896C228.8 896 0 667.2 0 384s228.8-512 512-512 512 228.8 512 512S795.2 896 512 896z"  horiz-adv-x="1024" />

    
    <glyph glyph-name="shoucang-2" unicode="&#58945;" d="M965.0551 592.817791l-209.649901 29.949985c-9.983329 1.663888-19.966657 8.319441-23.294433 18.30277L637.269144 830.753789C608.983046 888.989873 539.099746 912.284306 480.863662 883.998209c-23.294433-11.647217-41.597203-29.949986-53.244419-53.24442l-93.177734-189.683243c-4.991664-9.983329-13.311105-16.638881-24.958322-18.30277L99.833286 592.817791c-63.227748-9.983329-108.152727-68.219412-98.169398-133.111049 3.327776-24.958322 14.974993-48.252755 33.277762-66.555524l151.413818-148.086041c8.319441-6.655552 11.647217-18.302769 9.983328-28.286098L159.733258 8.793066c-11.647217-63.227748 31.613874-123.12772 94.841622-134.774936 24.958322-4.991664 51.580531 0 74.874964 11.647217l188.019356 98.169398c9.983329 4.991664 19.966657 4.991664 29.949986 0l188.019356-98.169398c39.933314-21.630545 86.522181-16.638881 123.127719 8.31944 36.605538 26.62221 53.244419 69.8833 46.588867 114.808279l-34.94165 207.986013c-1.663888 9.983329 1.663888 21.630545 9.983329 28.286098l151.413817 148.086041c46.588867 44.924979 46.588867 118.136055 1.663888 164.724922a141.2641 141.2641 0 0 1-68.219412 34.941651z"  horiz-adv-x="1067" />

    
    <glyph glyph-name="wodehuimi" unicode="&#58944;" d="M907.2 75.2v-46.4c0-51.2-41.6-92.8-92.8-92.8h-656c-51.2 0-92.8 41.6-92.8 92.8V683.2c0 51.2 41.6 92.8 92.8 92.8h654.4c51.2 0 92.8-41.6 92.8-92.8v-46.4H486.4c-51.2 0-92.8-41.6-92.8-92.8v-374.4c0-51.2 41.6-92.8 92.8-92.8h420.8z m-420.8 94.4h467.2V542.4H486.4v-372.8z m187.2 116.8c-38.4 0-70.4 32-70.4 70.4s32 70.4 70.4 70.4c38.4 0 70.4-32 70.4-70.4s-32-70.4-70.4-70.4z"  horiz-adv-x="1024" />

    
    <glyph glyph-name="daifukuan" unicode="&#58900;" d="M779.2 1.6H177.6c-62.4 0-113.6 51.2-113.6 113.6V654.4C64 716.8 115.2 768 177.6 768h601.6c62.4 0 113.6-51.2 113.6-113.6v-88c0-11.2-8-19.2-19.2-19.2s-19.2 8-19.2 19.2v88c0 41.6-33.6 73.6-73.6 73.6H177.6c-41.6 0-73.6-33.6-73.6-73.6v-539.2c0-41.6 33.6-73.6 73.6-73.6h601.6c41.6 0 73.6 33.6 73.6 73.6v105.6c0 11.2 8 19.2 19.2 19.2s19.2-8 19.2-19.2v-105.6c1.6-62.4-49.6-113.6-112-113.6zM878.4 264H608c-44.8 0-81.6 36.8-81.6 81.6v91.2c0 44.8 36.8 81.6 81.6 81.6h270.4c44.8 0 81.6-36.8 81.6-81.6v-91.2c0-44.8-36.8-81.6-81.6-81.6zM608 480c-24 0-43.2-19.2-43.2-43.2v-91.2c0-24 19.2-43.2 43.2-43.2h270.4c24 0 43.2 19.2 43.2 43.2v91.2c0 24-19.2 43.2-43.2 43.2H608zM657.6 355.2c-20.8 0-36.8 16-36.8 36.8 0 20.8 16 36.8 36.8 36.8 20.8 0 36.8-16 36.8-36.8 0-20.8-17.6-36.8-36.8-36.8z m0 38.4c-1.6 0-1.6-1.6-1.6-1.6 0-1.6 1.6-1.6 1.6-1.6 1.6 0 1.6 1.6 1.6 1.6l-1.6 1.6z"  horiz-adv-x="1024" />

    
    <glyph glyph-name="faxianjiaohuqian-01" unicode="&#58901;" d="M513.066667 797.653333A413.653333 413.653333 0 1 1 926.506667 384 413.653333 413.653333 0 0 1 513.066667 797.653333z m0-768A354.56 354.56 0 1 0 867.413333 384a354.986667 354.986667 0 0 0-354.346666-354.346667zM315.733333 167.253333l335.573334 78.506667 78.506666 335.573333-335.36-78.506666z m128 286.506667l207.146667 48.426667-48.426667-207.146667-207.146666-48.64zM522.88 423.68a49.28 49.28 0 1 1 49.066667-49.28 49.066667 49.066667 0 0 1-49.066667 49.28z"  horiz-adv-x="1024" />

    
    <glyph glyph-name="dianzan" unicode="&#58902;" d="M160-10.666667c-36.266667 0-64 27.733333-64 64v384c0 36.266667 27.733333 64 64 64h145.066667c17.066667 36.266667 51.2 102.4 113.066666 219.733334 32 55.466667 100.266667 74.666667 155.733334 42.666666 53.333333-32 76.8-98.133333 55.466666-157.866666l-27.733333-74.666667h213.333333c61.866667 0 113.066667-51.2 113.066667-115.2 0-6.4 0-12.8-2.133333-19.2l-44.8-260.266667c-14.933333-85.333333-87.466667-147.2-172.8-147.2H160zM475.733333 691.2c-32-59.733333-64-121.6-96-181.333333-10.666667-21.333333-19.2-36.266667-23.466666-46.933334-2.133333-4.266667-2.133333-6.4-4.266667-10.666666v-398.933334h358.4c53.333333 0 100.266667 38.4 108.8 93.866667l44.8 260.266667v8.533333c0 27.733333-21.333333 51.2-49.066667 51.2H507.733333l61.866667 162.133333c10.666667 29.866667 0 64-27.733333 78.933334-23.466667 12.8-53.333333 6.4-66.133334-17.066667z m-187.733333-253.866667h-128v-384h128v384z"  horiz-adv-x="1024" />

    
    <glyph glyph-name="yuezhifu" unicode="&#58903;" d="M809.6 105.6H718.4c-27.2 48-41.6 96-56 156.8h91.2c11.2-46.4 22.4-86.4 38.4-128h144V752c0 32-25.6 57.6-57.6 57.6H147.2C116.8 811.2 91.2 784 91.2 752v-617.6h166.4c16 40 28.8 80 40 128h91.2c-14.4-60.8-28.8-108.8-54.4-156.8H91.2v-84.8c0-32 25.6-57.6 57.6-57.6H880c32 0 57.6 25.6 57.6 57.6v84.8h-128zM478.4 673.6h94.4c76.8-83.2 123.2-123.2 236.8-219.2h-116.8c-78.4 59.2-104 89.6-168 152-64-62.4-89.6-92.8-168-152H240c115.2 96 160 136 238.4 219.2z m102.4-532.8c0-22.4-17.6-40-40-40h-121.6v35.2h48c12.8 0 22.4 9.6 22.4 22.4v148.8H241.6v35.2h246.4v65.6h-144v35.2h382.4v-35.2h-147.2v-65.6h228.8v-35.2H579.2v-166.4z"  horiz-adv-x="1024" />

    
    <glyph glyph-name="huomiao" unicode="&#58904;" d="M981.333333 810.666667c192-85.333333 320-256 341.333334-448 21.333333-106.666667-21.333333-234.666667-128-298.666667l-106.666667-42.666667c42.666667 21.333333 42.666667 85.333333 0 106.666667 0 64-42.666667 64-64 85.333333-21.333333 42.666667-21.333333 85.333333 0 128-42.666667-42.666667-64-106.666667-85.333333-170.666666 0-42.666667 0-106.666667 21.333333-149.333334-106.666667 42.666667-192 149.333333-192 256 0 64 21.333333 149.333333 64 192 42.666667 64 42.666667 170.666667 42.666667 170.666667 42.666667-21.333333 64-64 85.333333-106.666667 21.333333-64 0-85.333333 0-85.333333s42.666667 0 64 106.666667C1066.666667 682.666667 981.333333 810.666667 981.333333 810.666667z"  horiz-adv-x="13653" />

    
    <glyph glyph-name="gouwuchejiaohuqian-01" unicode="&#58905;" d="M913.066667 652.8a45.653333 45.653333 0 0 1-38.4 19.2H264.533333L258.133333 725.333333a48.64 48.64 0 0 1-49.066666 42.666667H128a32.853333 32.853333 0 0 1-32-32A32.853333 32.853333 0 0 1 128 704h68.266667L256 234.666667a48.213333 48.213333 0 0 1 46.933333-42.666667h497.066667a32 32 0 0 1 0 64H315.733333l-4.266666 32h475.733333a50.773333 50.773333 0 0 1 46.933333 34.133333l87.466667 288a50.986667 50.986667 0 0 1-8.533333 42.666667z m-136.533334-300.8H305.066667l-32 256H853.333333z m-392.533333-192a96 96 0 1 1 96-96 95.573333 95.573333 0 0 1-96 96z m0-128a32 32 0 1 0 32 32 32.853333 32.853333 0 0 0-32-32z m320 128a96 96 0 1 1 96-96 95.573333 95.573333 0 0 1-96 96z m0-128a32 32 0 1 0 32 32 32.853333 32.853333 0 0 0-32-32z"  horiz-adv-x="1024" />

    
    <glyph glyph-name="chihewanle" unicode="&#58906;" d="M797.257-128V237.714c-117.028 0-219.428 102.4-219.428 219.429V676.57C577.829 800.914 672.914 896 789.943 896h73.143c36.571 0 73.143-29.257 73.143-73.143V-128H797.257zM373.03 384v-512H153.6V384c-36.571 0-65.829 29.257-65.829 73.143V896h73.143v-365.714h73.143V896H307.2v-365.714h73.143V896h73.143v-446.171C438.857 413.257 409.6 384 373.029 384z"  horiz-adv-x="1024" />

    
    <glyph glyph-name="guanfangtehui" unicode="&#58907;" d="M921.6 576c-51.2 108.8-140.8 192-253.866667 232.533333-113.066667 40.533333-234.666667 36.266667-343.466666-14.933333-19.2-8.533333-27.733333-32-19.2-51.2 8.533333-19.2 32-27.733333 51.2-19.2 89.6 42.666667 189.866667 46.933333 283.733333 12.8s168.533333-102.4 209.066667-192c87.466667-185.6 6.4-407.466667-179.2-494.933333-89.6-42.666667-192-46.933333-283.733334-12.8-93.866667 34.133333-168.533333 102.4-209.066666 192-51.2 113.066667-53.333333 221.866667-2.133334 292.266666 25.6 34.133333 59.733333 53.333333 87.466667 49.066667 25.6-4.266667 40.533333-25.6 46.933333-42.666667l166.4-392.533333c6.4-14.933333 19.2-23.466667 36.266667-23.466667 14.933333 0 29.866667 8.533333 36.266667 23.466667l170.666666 392.533333c8.533333 19.2 0 42.666667-19.2 51.2-19.2 8.533333-42.666667 0-51.2-19.2L512 245.333333 381.866667 554.666667c-21.333333 51.2-59.733333 83.2-108.8 89.6-57.6 8.533333-119.466667-23.466667-160-78.933334C44.8 473.6 42.666667 334.933333 106.666667 194.133333c51.2-108.8 140.8-192 253.866666-232.533333 51.2-19.2 102.4-27.733333 153.6-27.733333 64 0 130.133333 14.933333 189.866667 42.666666 226.133333 106.666667 322.133333 375.466667 217.6 599.466667z"  horiz-adv-x="1024" />

    
    <glyph glyph-name="jingqu" unicode="&#58908;" d="M761.6 697.6c-19.2 32 19.2 38.4 19.2 38.4v32H243.2v-32s38.4-6.4 19.2-38.4-121.6-160-262.4-160c0 0 44.8-89.6 185.6-102.4v-268.8H320V428.8h38.4v-262.4h76.8V428.8H576v-262.4h76.8V428.8H704v-262.4h140.8V441.6c134.4 6.4 179.2 96 179.2 96-140.8 0-243.2 134.4-262.4 160zM140.8 51.2h736V153.6h-736v-102.4z"  horiz-adv-x="1024" />

    
    <glyph glyph-name="fenxiang" unicode="&#58909;" d="M551.6 620V754.6c12.1 56.3 58.2 22 58.2 22L930 500.1c70.4-48.9 4.8-85.7 4.8-85.7L619.5 140.3c-63.1-46.5-67.9 24.5-67.9 24.5V289.6C231.4 389.9 100.4-11.5 100.4-11.5c-12.1-22-19.4 0-19.4 0C-42.8 590.6 551.6 620 551.6 620z"  horiz-adv-x="1024" />

    
    <glyph glyph-name="daojishi" unicode="&#58910;" d="M520.533333 320h243.2c19.2 0 36.266667-17.066667 36.266667-36.266667 0-19.2-17.066667-36.266667-36.266667-36.266666H484.266667c-19.2 0-36.266667 17.066667-36.266667 36.266666v4.266667 379.733333c0 19.2 17.066667 36.266667 36.266667 36.266667s36.266667-17.066667 36.266666-36.266667V320zM512-128C228.266667-128 0 100.266667 0 384S228.266667 896 512 896s512-228.266667 512-512-228.266667-512-512-512z m0 72.533333c243.2 0 439.466667 196.266667 439.466667 439.466667S755.2 823.466667 512 823.466667 72.533333 627.2 72.533333 384 268.8-55.466667 512-55.466667z"  horiz-adv-x="1024" />

    
    <glyph glyph-name="guanyuwomen" unicode="&#58911;" d="M996.8 131.2c0 137.6-108.8 254.4-244.8 260.8 75.2 6.4 136 70.4 136 148.8 0 83.2-65.6 148.8-148.8 148.8-12.8 0-27.2-1.6-38.4-4.8 14.4-28.8 22.4-59.2 22.4-94.4 0-65.6-33.6-124.8-84.8-161.6 22.4-19.2 52.8-33.6 86.4-36.8-14.4 0-32-3.2-46.4-6.4 96-52.8 163.2-152 174.4-264h140.8c3.2-1.6 3.2 6.4 3.2 9.6zM368 380.8c-19.2 6.4-40 9.6-60.8 9.6 36.8 3.2 70.4 19.2 94.4 44.8-44.8 36.8-72 91.2-72 152 0 32 8 60.8 20.8 88-17.6 6.4-36.8 11.2-56 11.2-83.2 0-148.8-65.6-148.8-148.8 0-78.4 60.8-142.4 137.6-148.8-137.6-4.8-244.8-120-244.8-257.6v-11.2h161.6c11.2 110.4 75.2 208 168 260.8zM544 408c92.8 8 164.8 86.4 164.8 182.4 0 100.8-81.6 182.4-182.4 182.4s-182.4-81.6-182.4-182.4c0-96 73.6-172.8 166.4-182.4-163.2-8-296-144-296-313.6v-8h627.2v8c0 169.6-131.2 305.6-297.6 313.6z"  horiz-adv-x="1024" />

    
    <glyph glyph-name="shenghuoquanjiaohuhou" unicode="&#58912;" d="M512 793.6C284.8 793.6 102.4 611.2 102.4 384c0-57.6 12.8-115.2 35.2-166.4 3.2-3.2 3.2-6.4 6.4-9.6l-3.2-172.8c0-16 12.8-32 32-32l185.6 3.2 3.2-3.2c48-19.2 99.2-28.8 150.4-28.8 227.2 0 409.6 182.4 409.6 409.6S739.2 793.6 512 793.6z m0-755.2c-44.8 0-89.6 9.6-131.2 25.6-6.4 3.2-12.8 6.4-19.2 6.4l-160-3.2 3.2 144c0 6.4 0 16-6.4 22.4-3.2 3.2-3.2 6.4-6.4 12.8-16 41.6-25.6 89.6-25.6 137.6C166.4 576 320 729.6 512 729.6S857.6 576 857.6 384 704 38.4 512 38.4zM758.4 416c-16 0-32-12.8-32-32a214.4 214.4 0 0 0-428.8 0c0 16-12.8 32-32 32-16 0-32-12.8-32-32 0-153.6 124.8-278.4 278.4-278.4s278.4 124.8 278.4 278.4c0 16-16 32-32 32zM512 793.6C284.8 793.6 102.4 611.2 102.4 384c-3.2-89.6 38.4-172.8 41.6-179.2L140.8 32c0-28.8 22.4-32 32-32 3.2 0 185.6 3.2 185.6 3.2s60.8-32 156.8-32c227.2 0 409.6 182.4 409.6 409.6S739.2 793.6 512 793.6z m0-755.2c-44.8 0-89.6 9.6-131.2 25.6-6.4 3.2-12.8 6.4-19.2 6.4l-160-3.2 3.2 144c0 6.4 0 16-6.4 22.4-3.2 3.2-35.2 64-35.2 153.6C166.4 576 320 729.6 512 729.6S857.6 576 857.6 384 704 38.4 512 38.4zM726.4 384a214.4 214.4 0 0 0-428.8 0c0 41.6-60.8 44.8-64 0 0-153.6 124.8-278.4 278.4-278.4s278.4 124.8 278.4 278.4c0 41.6-60.8 41.6-64 0z"  horiz-adv-x="1024" />

    
    <glyph glyph-name="daishouhuo" unicode="&#58913;" d="M115.2 446.4l102.4 110.4c6.4 6.4 14.4 9.6 22.4 9.6h188.8v-121.6H115.2z m353.6-284.8V665.6c0 17.6 14.4 30.4 32 30.4h425.6c17.6 0 30.4-14.4 32-30.4v-472c0-17.6-14.4-30.4-32-30.4H880c-9.6 46.4-46.4 83.2-92.8 89.6-4.8 1.6-11.2 1.6-16 1.6-52.8 0-99.2-38.4-110.4-91.2l-192-1.6z m-348.8 0c-17.6 0-30.4 14.4-32 30.4V404.8h339.2v-243.2h-41.6c-9.6 46.4-46.4 83.2-92.8 89.6-4.8 1.6-11.2 1.6-16 1.6-52.8 0-99.2-38.4-110.4-91.2H120z m649.6 49.6c38.4 0 70.4-32 70.4-70.4 0-38.4-32-70.4-70.4-70.4-38.4 0-70.4 32-70.4 70.4 0 40 32 70.4 70.4 70.4z m-494.4 0c38.4 0 70.4-32 70.4-70.4 0-38.4-32-70.4-70.4-70.4-38.4 0-70.4 32-70.4 70.4 0 40 32 70.4 70.4 70.4z m0-182.4c52.8 0 99.2 38.4 110.4 91.2h275.2c8-46.4 46.4-83.2 92.8-89.6 4.8-1.6 11.2-1.6 16-1.6 52.8 0 99.2 38.4 110.4 91.2h46.4c40 0 72 32 73.6 72V665.6c0 40-32 72-73.6 72H500.8c-40 0-72-32-73.6-72v-56H240c-20.8 0-40-8-54.4-24l-134.4-145.6c0-1.6-1.6-1.6-1.6-3.2-1.6-1.6-1.6-1.6-1.6-3.2s0-1.6-1.6-3.2V193.6c0-40 32-72 73.6-72h46.4c9.6-46.4 46.4-83.2 92.8-89.6 4.8-1.6 11.2-3.2 16-3.2z"  horiz-adv-x="1024" />

    
    <glyph glyph-name="daifahuo" unicode="&#58914;" d="M828.8 740.8H195.2C153.6 740.8 120 704 120 656v-545.6c0-46.4 33.6-84.8 73.6-84.8h635.2c40 0 73.6 38.4 73.6 84.8V656c1.6 48-32 84.8-73.6 84.8z m0-38.4c19.2 0 35.2-20.8 35.2-44.8v-73.6H628.8v118.4h200z m-238.4 0v-353.6l-60.8 30.4-17.6 9.6-17.6-9.6-60.8-30.4V702.4h156.8z m-395.2 0h200v-118.4H160V656c0 25.6 16 46.4 35.2 46.4z m633.6-636.8H195.2c-19.2 0-35.2 20.8-35.2 44.8v432h235.2v-198.4c0-22.4 17.6-40 40-40l78.4 40L592 304c20.8 0 38.4 17.6 38.4 40V542.4H864v-432c0-24-16-44.8-35.2-44.8z"  horiz-adv-x="1024" />

    
    <glyph glyph-name="faxianjiaohuhou" unicode="&#58915;" d="M512 797.866667C283.733333 797.866667 100.266667 612.266667 100.266667 384S283.733333-29.866667 512-29.866667c228.266667 0 413.866667 185.6 413.866667 413.866667S742.4 797.866667 512 797.866667z m0-768c-196.266667 0-354.133333 160-354.133333 354.133333 0 196.266667 160 354.133333 354.133333 354.133333 196.266667 0 354.133333-160 354.133333-354.133333 2.133333-196.266667-157.866667-354.133333-354.133333-354.133333zM315.733333 166.4l334.933334 78.933333 78.933333 334.933334-334.933333-78.933334c0 2.133333-78.933333-334.933333-78.933334-334.933333z m128 288l206.933334 49.066667-49.066667-206.933334-206.933333-49.066666 49.066666 206.933333zM522.666667 424.533333c-27.733333 0-49.066667-21.333333-49.066667-49.066666 0-27.733333 21.333333-49.066667 49.066667-49.066667 27.733333 0 49.066667 21.333333 49.066666 49.066667 0 25.6-21.333333 49.066667-49.066666 49.066666z"  horiz-adv-x="1024" />

    
    <glyph glyph-name="gouwuchejiaohuhou" unicode="&#58916;" d="M913.066667 652.8c-8.533333 12.8-23.466667 19.2-38.4 19.2H264.533333L258.133333 725.333333c-4.266667 25.6-23.466667 42.666667-49.066666 42.666667H128c-17.066667 0-32-14.933333-32-32S110.933333 704 128 704h68.266667L256 234.666667c2.133333-23.466667 23.466667-42.666667 46.933333-42.666667h497.066667c17.066667 0 32 14.933333 32 32s-14.933333 32-32 32H315.733333l-4.266666 32h475.733333c21.333333 0 40.533333 14.933333 46.933333 34.133333l87.466667 288c4.266667 14.933333 0 29.866667-8.533333 42.666667z m-136.533334-300.8H305.066667l-32 256H853.333333l-76.8-256z m-392.533333-192c-53.333333 0-96-42.666667-96-96s42.666667-96 96-96 96 42.666667 96 96-42.666667 96-96 96z m0-128c-17.066667 0-32 14.933333-32 32s14.933333 32 32 32 32-14.933333 32-32-14.933333-32-32-32z m320 128c-53.333333 0-96-42.666667-96-96s42.666667-96 96-96 96 42.666667 96 96-42.666667 96-96 96z m0-128c-17.066667 0-32 14.933333-32 32s14.933333 32 32 32 32-14.933333 32-32-14.933333-32-32-32z"  horiz-adv-x="1024" />

    
    <glyph glyph-name="shouyejiaohuqian-01" unicode="&#58917;" d="M947.413333 469.333333L570.453333 768a97.066667 97.066667 0 0 1-115.84 0L77.653333 469.333333a29.653333 29.653333 0 0 1-4.906666-42.666666 29.013333 29.013333 0 0 1 41.173333-4.906667l11.733333 9.6v-360.106667c0-50.986667 53.973333-89.173333 101.333334-89.173333h594.986666c46.72 0 77.226667 35.84 77.226667 89.173333V430.293333l10.88-8.32a30.506667 30.506667 0 0 1 18.56-6.4 29.866667 29.866667 0 0 1 18.773333 53.76zM482.773333 42.666667v163.84c0 8.106667 14.933333 12.373333 29.653334 12.373333s29.866667-4.266667 29.866666-12.373333v-164.906667z m356.906667 29.653333c0-19.626667-5.333333-29.653333-17.706667-29.653333h-219.733333v163.84C601.813333 241.066667 573.866667 277.333333 512 277.333333s-89.173333-37.333333-89.173333-71.893333V41.386667h-195.84c-18.773333 0-42.666667 16-42.666667 29.653333V478.72L490.666667 720a36.693333 36.693333 0 0 0 42.666666 0l306.346667-242.773333v-405.333334z"  horiz-adv-x="1024" />

    
    <glyph glyph-name="shenghuofuwu" unicode="&#58918;" d="M277.333 576v42.667h256V576h-256z m0-128v42.667h256V448h-256z m0-128v42.667h256V320h-256z m0-128v42.667h256V192h-256zM896 21.333V512a21.333 21.333 0 0 1-21.333 21.333h-128A21.333 21.333 0 0 1 725.333 512v-490.667h-42.666v725.27a42.73 42.73 0 0 1-42.603 42.73H170.603A42.667 42.667 0 0 1 128 746.603v-725.27H85.333v-42.666h853.334v42.666H896z"  horiz-adv-x="1024" />

    
    <glyph glyph-name="jiagegengdi" unicode="&#58919;" d="M674.133333 362.666667c25.6 0 46.933333 21.333333 46.933334 46.933333 0 25.6-21.333333 46.933333-46.933334 46.933333h-102.4l110.933334 110.933334c19.2 19.2 19.2 49.066667 0 66.133333-19.2 19.2-49.066667 19.2-66.133334 0l-110.933333-110.933333-110.933333 108.8c-19.2 19.2-49.066667 19.2-66.133334 0-19.2-19.2-19.2-49.066667 0-66.133334l110.933334-108.8h-102.4c-25.6 0-46.933333-21.333333-46.933334-46.933333 0-25.6 21.333333-46.933333 46.933334-46.933333h121.6v-64h-121.6c-25.6 0-46.933333-21.333333-46.933334-46.933334s21.333333-46.933333 46.933334-46.933333h121.6v-83.2c0-25.6 21.333333-46.933333 46.933333-46.933333 25.6 0 46.933333 21.333333 46.933333 46.933333v83.2h121.6c25.6 0 46.933333 21.333333 46.933334 46.933333s-21.333333 46.933333-46.933334 46.933334h-121.6v64h121.6zM881.066667 710.4c-17.066667 19.2-46.933333 21.333333-66.133334 4.266667-19.2-17.066667-21.333333-46.933333-4.266666-66.133334 104.533333-119.466667 132.266667-290.133333 68.266666-435.2-42.666667-100.266667-123.733333-177.066667-226.133333-217.6-102.4-40.533333-213.333333-38.4-313.6 6.4-204.8 89.6-298.666667 330.666667-209.066667 537.6 42.666667 100.266667 123.733333 177.066667 226.133334 217.6 102.4 40.533333 213.333333 38.4 313.6-6.4 23.466667-10.666667 51.2 0 61.866666 23.466667s0 51.2-23.466666 61.866667C584.533333 889.6 448 891.733333 322.133333 842.666667 196.266667 795.733333 98.133333 699.733333 42.666667 578.133333c-110.933333-253.866667 6.4-550.4 260.266666-661.333333 64-27.733333 132.266667-42.666667 200.533334-42.666667 61.866667 0 123.733333 10.666667 183.466666 34.133334 125.866667 49.066667 224 142.933333 277.333334 266.666666 81.066667 179.2 46.933333 388.266667-83.2 535.466667z"  horiz-adv-x="1024" />

    
    <glyph glyph-name="huomiao-2no" unicode="&#58920;" d="M422.4-64s-388.266667 87.466667-213.333333 520.533333c0 0 38.4-49.066667 34.133333-70.4 0 0 29.866667 108.8 98.133333 174.933334 57.6 55.466667 115.2 213.333333 61.866667 270.933333 0 0 264.533333-57.6 294.4-343.466667 0 0 34.133333 91.733333 104.533333 100.266667 0 0-21.333333-49.066667 0-125.866667 0 0 219.733333-386.133333-157.866666-516.266666 0 0 113.066667 132.266667-128 358.4 0 0-57.6-121.6-89.6-164.266667-4.266667 2.133333-100.266667-106.666667-4.266667-204.8z"  horiz-adv-x="1024" />

    
    <glyph glyph-name="pinglun" unicode="&#58921;" d="M522.666667-57.6c-78.933333 0-157.866667 19.2-228.266667 53.333333l-136.533333-29.866666c-19.2-4.266667-38.4 8.533333-40.533334 27.733333v14.933333l23.466667 108.8c-61.866667 74.666667-93.866667 162.133333-93.866667 256 0 236.8 213.333333 430.933333 477.866667 430.933334C787.2 804.266667 1002.666667 610.133333 1002.666667 373.333333c-2.133333-238.933333-215.466667-430.933333-480-430.933333z m-221.866667 123.733333c6.4 0 10.666667-2.133333 17.066667-4.266666 64-34.133333 134.4-51.2 206.933333-51.2 224 0 407.466667 162.133333 407.466667 360.533333s-183.466667 362.666667-409.6 362.666667c-224 0-405.333333-162.133333-405.333334-360.533334 0-81.066667 29.866667-157.866667 87.466667-224 6.4-8.533333 10.666667-19.2 8.533333-29.866666l-14.933333-74.666667 96 21.333333h6.4z m36.266667 307.2c0-25.6-21.333333-46.933333-46.933334-46.933333s-46.933333 21.333333-46.933333 46.933333c0 25.6 21.333333 46.933333 46.933333 46.933334s46.933333-21.333333 46.933334-46.933334z m232.533333 0c0-25.6-21.333333-46.933333-46.933333-46.933333-25.6 0-46.933333 21.333333-46.933334 46.933333 0 25.6 21.333333 46.933333 46.933334 46.933334 27.733333-2.133333 46.933333-21.333333 46.933333-46.933334z m232.533333 0c0-25.6-21.333333-46.933333-46.933333-46.933333-25.6 0-46.933333 21.333333-46.933333 46.933333 0 25.6 21.333333 46.933333 46.933333 46.933334 27.733333-2.133333 46.933333-21.333333 46.933333-46.933334z"  horiz-adv-x="1024" />

    
    <glyph glyph-name="shenghuoquanjiaohuqian-01" unicode="&#58922;" d="M512 793.6A409.92 409.92 0 0 1 102.72 384a404.16 404.16 0 0 1 35.2-166.72c1.6-3.84 3.52-7.36 5.12-10.88l-4.48-172.48a32 32 0 0 1 32-32h1.92l184.64 4.48 4.48-2.24a404.48 404.48 0 0 1 151.68-29.12A409.6 409.6 0 1 1 512 793.6z m0-755.84a347.52 347.52 0 0 0-129.92 26.24 27.52 27.52 0 0 1-20.16 6.4l-160-3.84 3.84 143.04a32 32 0 0 1-5.12 22.4l-5.76 12.16A340.8 340.8 0 0 0 165.76 384 346.24 346.24 0 1 0 512 37.76zM758.4 416a32 32 0 0 1-32-32 215.04 215.04 0 0 0-429.44 0 32 32 0 1 1-64 0 278.08 278.08 0 0 1 556.16 0 32 32 0 0 1-30.72 32zM512 793.6A409.92 409.92 0 0 1 102.72 384a420.8 420.8 0 0 1 40.32-177.6l-4.48-172.48a32 32 0 0 1 32-32l184.64 4.48a377.28 377.28 0 0 1 156.16-32A409.6 409.6 0 1 1 512 793.6z m0-755.84a347.52 347.52 0 0 0-129.92 26.24 27.52 27.52 0 0 1-20.16 6.4l-160-3.84 3.84 143.04a32 32 0 0 1-5.12 22.4 346.24 346.24 0 1 0 310.72-192zM727.04 384a215.04 215.04 0 0 0-430.08 0 32 32 0 1 1-64 0 278.08 278.08 0 0 1 556.16 0 32 32 0 0 1-62.08 0z"  horiz-adv-x="1024" />

    
    <glyph glyph-name="kefuzhongxin" unicode="&#58923;" d="M65.6 334.4c0 56 16 112 72 112C182.4 617.6 336 737.6 512 740.8c176-3.2 329.6-123.2 374.4-294.4 56-4.8 72-56 72-112s-16-112-72-116.8c-22.4-1.6-43.2 14.4-44.8 36.8 0 6.4 0 12.8 3.2 19.2v3.2c3.2 19.2 4.8 36.8 4.8 56 6.4 188.8-144 347.2-332.8 353.6H512c-188.8-4.8-339.2-161.6-336-350.4v-1.6c0-19.2 1.6-36.8 4.8-56 3.2-20.8 0-3.2 0-3.2 8-20.8-3.2-44.8-24-52.8-6.4-1.6-12.8-3.2-19.2-3.2C80 224 65.6 272 65.6 334.4zM534.4 176h-1.6 1.6z m0 0h1.6-1.6z m41.6 11.2c1.6 0 1.6 0 1.6 1.6l-1.6-1.6z m0 0z m-86.4-11.2c3.2 0 1.6 0 0 0zM806.4 334.4C809.6 500.8 676.8 636.8 512 640c-164.8-3.2-297.6-139.2-294.4-305.6-3.2-166.4 128-304 294.4-307.2 166.4 3.2 299.2 140.8 294.4 307.2z m-113.6-112c-11.2-16-24-30.4-40-41.6-25.6-20.8-54.4-36.8-88-46.4-38.4-9.6-80-9.6-118.4 3.2-46.4 14.4-88 44.8-116.8 84.8-8 11.2-1.6 25.6 8 32 11.2 8 25.6 1.6 32-8l1.6-1.6c1.6-3.2 4.8-4.8 6.4-8 8-8 16-16 24-22.4l3.2-3.2c1.6-1.6 4.8-3.2 6.4-4.8 6.4-3.2 11.2-8 17.6-11.2 3.2-1.6 8-3.2 11.2-4.8 1.6 0 3.2-1.6 3.2-1.6h1.6c8-3.2 14.4-4.8 22.4-8 4.8-1.6 8-1.6 12.8-3.2h8c9.6-1.6 19.2-1.6 27.2-1.6 4.8 0 9.6 0 14.4 1.6h3.2c1.6 0 3.2 0 4.8 1.6 8 1.6 16 3.2 24 6.4 3.2 1.6 6.4 3.2 9.6 3.2l3.2 1.6c1.6 0 3.2 1.6 3.2 1.6l19.2 9.6c4.8 3.2 11.2 6.4 16 11.2l3.2 3.2c1.6 1.6 4.8 3.2 6.4 4.8l19.2 19.2c1.6 1.6 3.2 3.2 4.8 6.4 8 11.2 20.8 14.4 32 8 17.6-4.8 22.4-22.4 14.4-32z"  horiz-adv-x="1024" />

    
    <glyph glyph-name="youzhishangjia" unicode="&#58924;" d="M512 27.733333c-8.533333 0-17.066667 4.266667-21.333333 10.666667L117.333333 433.066667c-14.933333 17.066667-14.933333 42.666667-2.133333 59.733333l192 232.533333c8.533333 10.666667 21.333333 17.066667 36.266667 17.066667h324.266666c12.8 0 25.6-6.4 34.133334-14.933333l204.8-232.533334c14.933333-17.066667 14.933333-42.666667 0-59.733333L533.333333 36.266667c-6.4-6.4-12.8-8.533333-21.333333-8.533334zM172.8 465.066667l339.2-362.666667 339.2 360.533333L661.333333 680.533333H352L172.8 465.066667zM512 249.6c-6.4 0-12.8 2.133333-19.2 8.533333l-157.866667 157.866667c-10.666667 10.666667-10.666667 27.733333 0 38.4s27.733333 10.666667 38.4 0l138.666667-138.666667 147.2 138.666667c10.666667 10.666667 27.733333 8.533333 38.4-2.133333s8.533333-27.733333-2.133333-38.4L529.066667 256c-4.266667-4.266667-10.666667-6.4-17.066667-6.4z"  horiz-adv-x="1024" />

    
    <glyph glyph-name="fenxiang1" unicode="&#58925;" d="M866.133333 228.266667c-29.866667 17.066667-61.866667 25.6-96 25.6-32 0-66.133333-8.533333-93.866666-25.6-21.333333-12.8-38.4-27.733333-53.333334-44.8L424.533333 298.666667c21.333333 42.666667 25.6 89.6 12.8 134.4-4.266667 12.8-8.533333 23.466667-12.8 36.266666l198.4 115.2c14.933333-19.2 34.133333-34.133333 53.333334-44.8 27.733333-17.066667 61.866667-25.6 93.866666-25.6 34.133333 0 66.133333 8.533333 96 25.6 44.8 25.6 74.666667 66.133333 89.6 115.2 12.8 49.066667 4.266667 100.266667-19.2 145.066667-17.066667 29.866667-42.666667 53.333333-70.4 70.4C838.4 887.466667 804.266667 896 772.266667 896c-34.133333 0-66.133333-8.533333-96-25.6-40.533333-23.466667-70.4-61.866667-85.333334-106.666667-12.8-42.666667-12.8-85.333333 2.133334-125.866666l-204.8-117.333334c-12.8 12.8-25.6 21.333333-40.533334 29.866667-29.866667 17.066667-61.866667 25.6-96 25.6-32 0-66.133333-8.533333-93.866666-25.6-29.866667-17.066667-53.333333-40.533333-70.4-70.4-23.466667-44.8-32-96-17.066667-145.066667 12.8-49.066667 44.8-89.6 89.6-115.2 29.866667-17.066667 61.866667-25.6 96-25.6 32 0 66.133333 8.533333 93.866667 25.6 14.933333 8.533333 29.866667 19.2 40.533333 32l204.8-117.333333c-14.933333-38.4-17.066667-76.8-6.4-117.333333 12.8-49.066667 44.8-89.6 89.6-115.2 29.866667-17.066667 61.866667-25.6 96-25.6 32 0 66.133333 8.533333 93.866667 25.6 29.866667 17.066667 53.333333 40.533333 70.4 70.4a192 192 0 0 1 19.2 145.066666c-17.066667 44.8-49.066667 85.333333-91.733334 110.933334zM661.333333 125.866667c23.466667 38.4 64 64 108.8 64 21.333333 0 42.666667-6.4 61.866667-17.066667 29.866667-17.066667 49.066667-44.8 57.6-76.8 8.533333-32 4.266667-66.133333-12.8-96-23.466667-38.4-64-64-108.8-64-21.333333 0-42.666667 6.4-61.866667 17.066667-29.866667 17.066667-49.066667 44.8-57.6 76.8-8.533333 34.133333-4.266667 68.266667 12.8 96zM362.666667 320c-23.466667-38.4-64-64-108.8-64-21.333333 0-42.666667 6.4-61.866667 17.066667-29.866667 17.066667-49.066667 44.8-57.6 76.8-10.666667 34.133333-6.4 68.266667 10.666667 98.133333 23.466667 38.4 64 64 108.8 64 21.333333 0 42.666667-6.4 61.866666-17.066667 29.866667-17.066667 49.066667-44.8 57.6-76.8 10.666667-34.133333 6.4-68.266667-10.666666-98.133333zM770.133333 829.866667c44.8 0 87.466667-23.466667 108.8-64 17.066667-29.866667 21.333333-64 12.8-96s-29.866667-59.733333-57.6-76.8c-19.2-10.666667-40.533333-17.066667-61.866666-17.066667-44.8 0-87.466667 23.466667-108.8 64-17.066667 29.866667-21.333333 64-12.8 96s29.866667 59.733333 57.6 76.8c19.2 10.666667 40.533333 17.066667 61.866666 17.066667z"  horiz-adv-x="1024" />

    
    <glyph glyph-name="shezhi" unicode="&#58926;" d="M508.8 547.2c-88 0-161.6-73.6-161.6-163.2s72-163.2 161.6-163.2S670.4 294.4 670.4 384s-73.6 163.2-161.6 163.2z m-128 264c16 0 33.6-6.4 44.8-16 12.8-14.4 54.4-51.2 86.4-51.2s75.2 36.8 86.4 49.6c9.6 12.8 28.8 17.6 44.8 17.6 9.6 0 16 0 24-4.8h1.6l110.4-62.4h1.6c22.4-16 30.4-46.4 20.8-70.4 0 0-9.6-22.4-9.6-43.2 0-60.8 48-110.4 108.8-110.4h3.2c20.8 0 36.8-17.6 41.6-46.4 1.6-1.6 9.6-51.2 9.6-89.6 0-40-9.6-89.6-9.6-89.6-3.2-28.8-22.4-46.4-41.6-46.4h-3.2c-60.8 0-108.8-48-108.8-110.4 0-20.8 9.6-43.2 9.6-43.2 9.6-24 1.6-52.8-20.8-68.8h-1.6l-110.4-62.4h-1.6c-6.4-1.6-14.4-4.8-22.4-4.8-17.6 0-36.8 8-46.4 20.8-12.8 14.4-56 52.8-88 52.8-30.4 0-70.4-36.8-86.4-52.8-9.6-12.8-25.6-20.8-44.8-20.8-9.6 0-16 0-24 4.8H352l-108.8 60.8h-1.6c-22.4 16-30.4 46.4-20.8 70.4 0 0 9.6 22.4 9.6 43.2 0 60.8-48 110.4-108.8 110.4h-3.2c-20.8 0-36.8 17.6-41.6 46.4-1.6 1.6-9.6 51.2-9.6 89.6 0 36.8 8 84.8 9.6 89.6 3.2 28.8 22.4 46.4 41.6 46.4h1.6c60.8 0 108.8 48 108.8 110.4 0 20.8-9.6 43.2-9.6 43.2-9.6 24-1.6 52.8 20.8 68.8h1.6l115.2 65.6h1.6c6.4 0 14.4 3.2 22.4 3.2z"  horiz-adv-x="1024" />

    
    <glyph glyph-name="pinpai" unicode="&#58927;" d="M512-8c-217.6 0-388.8 174.4-392 385.6-3.2 227.2 180.8 400 390.4 400 220.8 0 395.2-179.2 393.6-393.6-1.6-217.6-176-392-392-392z m-153.6 214.4c0-9.6 4.8-17.6 12.8-22.4 9.6-6.4 19.2-6.4 27.2 0 33.6 20.8 68.8 41.6 102.4 62.4 4.8 3.2 9.6 3.2 14.4 0 33.6-20.8 68.8-40 102.4-60.8 11.2-6.4 20.8-8 30.4 0 9.6 8 12.8 17.6 9.6 30.4-8 33.6-14.4 67.2-24 100.8-4.8 17.6-1.6 27.2 11.2 38.4 28.8 24 56 48 83.2 73.6 4.8 4.8 8 12.8 8 19.2 0 14.4-9.6 22.4-25.6 24-38.4 3.2-75.2 6.4-113.6 9.6-11.2 0-16 4.8-19.2 14.4-14.4 35.2-30.4 72-44.8 107.2-1.6 3.2-3.2 6.4-6.4 9.6-14.4 12.8-35.2 6.4-43.2-11.2-14.4-35.2-28.8-68.8-43.2-104-3.2-9.6-9.6-16-20.8-14.4-8 0-16 0-24-1.6-30.4-3.2-60.8-4.8-91.2-8-11.2-1.6-19.2-6.4-22.4-17.6-3.2-11.2-1.6-20.8 8-28.8l14.4-14.4c25.6-22.4 51.2-46.4 76.8-68.8 3.2-3.2 4.8-8 3.2-12.8-3.2-14.4-6.4-28.8-11.2-43.2-1.6-30.4-8-56-14.4-81.6z"  horiz-adv-x="1024" />

    
    <glyph glyph-name="gouwucheshoucang" unicode="&#58928;" d="M812.8-104.533333c-4.266667 0-8.533333 0-10.666667 2.133333l-288 151.466667-288-151.466667c-8.533333-4.266667-17.066667-4.266667-25.6 2.133333s-12.8 14.933333-10.666666 23.466667l55.466666 322.133333-234.666666 228.266667c-6.4 6.4-8.533333 17.066667-6.4 25.6 2.133333 8.533333 10.666667 14.933333 19.2 17.066667l322.133333 46.933333L490.666667 855.466667c8.533333 17.066667 36.266667 17.066667 42.666666 0l78.933334-160c6.4-12.8 0-25.6-10.666667-32-12.8-6.4-25.6 0-32 10.666666L514.133333 789.333333l-128-260.266666c-4.266667-6.4-10.666667-12.8-19.2-12.8l-285.866666-42.666667 206.933333-202.666667c6.4-6.4 8.533333-12.8 6.4-21.333333l-49.066667-285.866667 256 134.4c6.4 4.266667 14.933333 4.266667 23.466667 0l256-134.4-49.066667 285.866667c-2.133333 8.533333 2.133333 14.933333 6.4 21.333333l206.933334 202.666667-285.866667 42.666667c-12.8 2.133333-23.466667 14.933333-21.333333 27.733333 2.133333 12.8 14.933333 23.466667 27.733333 21.333333L1002.666667 514.133333c8.533333-2.133333 17.066667-8.533333 19.2-17.066666 2.133333-8.533333 0-19.2-6.4-25.6L782.933333 245.333333l55.466667-322.133333c2.133333-8.533333-2.133333-19.2-10.666667-23.466667-4.266667-2.133333-8.533333-4.266667-14.933333-4.266666z"  horiz-adv-x="1024" />

    
    <glyph glyph-name="tuiguangyonghu" unicode="&#58929;" d="M513.694624 21.431644c0-23.59447 6.291859-44.043011 17.302611-61.345622 11.010753-17.302611 26.740399-28.313364 42.470046-33.032259-20.448541-1.572965-39.324117-1.572965-56.626728-3.145929-17.302611 0-34.605223-1.572965-48.761905-1.572965-18.875576 0-39.324117 0-64.491551 1.572965l-75.502304 4.718894c-26.740399 1.572965-51.907834 4.718894-77.075269 7.864823-25.167435 3.145929-48.761905 6.291859-69.210446 9.437788-20.448541 3.145929-39.324117 6.291859-53.480798 9.437788s-23.59447 6.291859-28.313364 9.437789c-6.291859 4.718894-12.583717 20.448541-15.729647 47.18894s-1.572965 59.772657 4.718894 102.242703c3.145929 15.729647 7.864823 28.313364 15.729647 39.324117S122.026421 172.436252 133.037174 180.301075s23.59447 12.583717 37.751152 17.302612c14.156682 4.718894 28.313364 9.437788 42.470046 12.583717s28.313364 7.864823 42.470046 14.156682c14.156682 4.718894 26.740399 11.010753 37.751152 17.302611 14.156682 7.864823 23.59447 15.729647 31.459293 23.59447s12.583717 15.729647 15.729647 23.59447c3.145929 7.864823 4.718894 15.729647 4.718894 23.594471s0 17.302611-1.572965 28.313364c-1.572965 14.156682-6.291859 26.740399-14.156682 34.605222s-18.875576 17.302611-29.886328 26.7404c-4.718894 4.718894-9.437788 11.010753-14.156682 18.875576s-7.864823 15.729647-11.010753 23.59447c-3.145929 9.437788-6.291859 20.448541-9.437788 29.886329-4.718894 1.572965-9.437788 3.145929-14.156682 6.291858-3.145929 3.145929-7.864823 7.864823-12.583718 14.156682s-7.864823 14.156682-11.010752 25.167435c-3.145929 11.010753-4.718894 20.448541-3.14593 29.886329s3.145929 17.302611 4.718894 23.59447c3.145929 6.291859 6.291859 14.156682 11.010753 20.44854 0 23.59447 0 48.761905 3.145929 72.356375 3.145929 20.448541 7.864823 42.470046 14.156682 66.064516s15.729647 44.043011 29.886329 62.918587c12.583717 17.302611 25.167435 33.032258 40.897082 44.043011 15.729647 11.010753 29.886329 20.448541 45.615975 26.740399s31.459293 11.010753 47.18894 12.583718 31.459293 3.145929 45.615976 3.145929c18.875576 0 36.178187-1.572965 55.053763-6.291859 20.448541-6.291859 36.178187-11.010753 53.480799-18.875576s29.886329-15.729647 42.470046-23.59447 22.021505-17.302611 29.886329-26.740399c15.729647-20.448541 28.313364-42.470046 36.178187-67.637481 7.864823-25.167435 14.156682-47.18894 17.302611-70.78341 3.145929-25.167435 4.718894-51.907834 4.718894-77.075269 4.718894-3.145929 7.864823-7.864823 11.010753-12.583717 3.145929-4.718894 4.718894-9.437788 6.291859-17.302612s1.572965-15.729647 0-25.167434c-1.572965-14.156682-4.718894-23.59447-9.437788-31.459294s-9.437788-14.156682-14.156682-18.875576c-6.291859-4.718894-11.010753-7.864823-18.875576-11.010752-3.145929-11.010753-6.291859-20.448541-9.437788-29.886329-3.145929-7.864823-6.291859-15.729647-11.010753-23.59447-3.145929-7.864823-7.864823-14.156682-14.156682-18.875576-6.291859-4.718894-12.583717-9.437788-17.302611-12.583718s-7.864823-7.864823-12.583718-12.583717l-9.437788-14.156682c-3.145929-4.718894-4.718894-11.010753-6.291859-20.448541-1.572965-9.437788-1.572965-18.875576-1.572964-29.886328 0-9.437788 3.145929-20.448541 7.864823-29.886329 4.718894-9.437788 12.583717-18.875576 22.021506-28.313364 9.437788-9.437788 23.59447-17.302611 40.897081-23.59447 3.145929-1.572965 6.291859-1.572965 9.437788-3.14593V161.425499c-3.145929 0-7.864823-1.572965-15.729647-1.572964h-64.491551c-58.199693 0-88.086022-23.59447-88.086022-69.210446 3.145929 1.572965 3.145929-69.210445 3.14593-69.210445z m471.889401 56.626728c9.437788-6.291859 14.156682-17.302611 14.156682-29.886329s-3.145929-22.021505-9.437788-26.740399c-11.010753-7.864823-25.167435-17.302611-42.470046-29.886329-17.302611-11.010753-36.178187-22.021505-55.053764-34.605223-18.875576-11.010753-37.751152-23.59447-56.626728-34.605223-18.875576-11.010753-33.032258-22.021505-44.043011-31.459293-14.156682-12.583717-25.167435-18.875576-33.032258-18.875576s-11.010753 9.437788-11.010753 26.740399v47.18894c0 12.583717-3.145929 20.448541-7.864823 26.7404-7.864823 7.864823-14.156682 11.010753-25.167435 11.010753h-113.253456c-9.437788 0-17.302611 3.145929-23.59447 7.864823s-9.437788 12.583717-9.437788 23.59447v47.18894c0 18.875576 3.145929 31.459293 9.437788 34.605223 6.291859 4.718894 17.302611 6.291859 33.032258 6.291858H710.315207c14.156682 0 23.59447 4.718894 29.886329 14.156682 6.291859 9.437788 7.864823 20.448541 7.864823 33.032259v45.615975c0 12.583717 3.145929 20.448541 7.864824 23.59447 6.291859 3.145929 14.156682 1.572965 25.167435-7.864823 11.010753-9.437788 25.167435-18.875576 44.04301-29.886329 18.875576-11.010753 37.751152-23.59447 58.199693-34.605223 20.448541-12.583717 39.324117-23.59447 58.199693-36.178187 17.302611-12.583717 33.032258-23.59447 44.043011-33.032258z"  horiz-adv-x="1024" />

    
    <glyph glyph-name="shouyejiaohuhou" unicode="&#58930;" d="M947.2 469.333333L569.6 768c-32 25.6-83.2 25.6-115.2 0L76.8 469.333333c-12.8-10.666667-14.933333-29.866667-4.266667-42.666666 10.666667-12.8 27.733333-14.933333 40.533334-4.266667l12.8 10.666667v-360.533334c0-51.2 53.333333-89.6 100.266666-89.6h595.2c46.933333 0 76.8 36.266667 76.8 89.6V430.933333l10.666667-8.533333c6.4-4.266667 12.8-6.4 19.2-6.4 8.533333 0 17.066667 4.266667 23.466667 10.666667 10.666667 12.8 8.533333 32-4.266667 42.666666zM482.133333 40.533333v164.266667c0 8.533333 14.933333 12.8 29.866667 12.8s29.866667-4.266667 29.866667-12.8v-164.266667h-59.733334z m358.4 29.866667c0-19.2-6.4-29.866667-17.066666-29.866667H601.6v166.4c0 34.133333-27.733333 72.533333-89.6 72.533334-61.866667 0-89.6-36.266667-89.6-72.533334v-166.4h-196.266667c-19.2 0-42.666667 17.066667-42.666666 29.866667V477.866667L490.666667 721.066667c10.666667 8.533333 29.866667 8.533333 42.666666 0l307.2-243.2v-407.466667z"  horiz-adv-x="1024" />

    
    <glyph glyph-name="wodejiaohuqian-01" unicode="&#58931;" d="M512 778.666667a179.2 179.2 0 1 0-179.2-179.2A180.266667 180.266667 0 0 0 512 778.666667M608 277.333333a234.666667 234.666667 0 0 0 170.666667-72.533333 244.48 244.48 0 0 0 72.533333-181.333333v-14.933334c-32-21.333333-174.933333-21.333333-245.333333-21.333333h-192c-81.066667 0-215.466667 0-245.333334 19.2V21.333333a253.653333 253.653333 0 0 0 247.466667 256h192M512 832a232.533333 232.533333 0 1 1 232.533333-232.533333A233.173333 233.173333 0 0 1 512 832z m96-501.333333h-192a302.293333 302.293333 0 0 1-298.666667-305.066667v-19.2c0-68.266667 132.266667-68.266667 298.666667-68.266667h192c164.266667 0 298.666667 2.133333 298.666667 68.266667v19.2a302.293333 302.293333 0 0 1-298.666667 305.066667z"  horiz-adv-x="1024" />

    
    <glyph glyph-name="weixin" unicode="&#58932;" d="M236.24 572.231c0-24.005 19.32-43.325 43.325-43.325s43.326 19.32 43.326 43.325c0 24.005-19.321 43.325-43.326 43.325-24.004 0-43.325-19.32-43.325-43.325z m336.064-223.067c0-18.735 15.223-33.958 33.958-33.958s33.958 15.223 33.958 33.958-15.223 33.958-33.958 33.958-33.958-15.223-33.958-33.958zM456.38 572.231c0-24.005 19.32-43.325 43.325-43.325 24.005 0 43.325 19.32 43.325 43.325 0 24.005-19.32 43.325-43.325 43.325-24.005 0-43.325-19.32-43.325-43.325zM858.017 896H165.983C74.648 896 0.293 821.644 0.293 729.724v-690.863c0-91.92 74.355-166.276 165.69-166.276h692.034c91.335 0 165.69 74.356 165.69 166.276V729.724C1023.707 821.06 949.352 896 858.017 896zM384.366 209.82c-38.642 0-69.672 8.197-108.899 15.808L167.154 171.18l31.03 93.09C120.316 318.72 74.063 388.978 74.063 473.872c0 147.54 139.929 264.05 310.303 264.05 152.81 0 286.298-93.09 313.23-217.798a255.341 255.341 0 0 1-29.859 1.757c-147.54 0-264.05-110.07-264.05-245.315 0-22.834 3.513-44.496 9.367-64.988-9.367-1.171-18.735-1.757-28.688-1.757z m457.843-108.313l23.42-77.283-84.895 46.838c-31.03-7.61-62.06-15.808-93.09-15.808-147.541 0-264.051 100.703-264.051 225.41 0 124.12 116.51 225.408 264.05 225.408 139.344 0 263.465-101.288 263.465-225.409-0.585-70.843-46.838-132.903-108.899-179.156zM741.507 349.164c0-18.735 15.223-33.958 33.958-33.958s33.958 15.223 33.958 33.958-15.223 33.958-33.958 33.958c-19.32 0-33.958-15.223-33.958-33.958z"  horiz-adv-x="1024" />

    
    <glyph glyph-name="xiala" unicode="&#58933;" d="M857.6 531.2c-12.8 12.8-32 19.2-44.8 6.4L512 294.4 211.2 537.6c-12.8 12.8-32 6.4-44.8-6.4-12.8-12.8-6.4-32 6.4-44.8L512 217.6l339.2 268.8c12.8 12.8 19.2 32 6.4 44.8z"  horiz-adv-x="1024" />

    
    <glyph glyph-name="shenghuoquan-2" unicode="&#58934;" d="M835.2 536H520V656c12.8 1.6 33.6 11.2 56 20.8 124.8 56 116.8-11.2 161.6 20.8 44.8 33.6-4.8 118.4-105.6 97.6-76.8-16-113.6-89.6-123.2-113.6-9.6 24-40 78.4-110.4 104-121.6 44.8-177.6-44.8-132.8-78.4S323.2 728 448 672c20.8-9.6 38.4-17.6 49.6-20.8v-116.8H190.4c-25.6 0-46.4-17.6-46.4-41.6v-73.6c0-12.8 6.4-24 17.6-32 1.6-1.6 4.8-3.2 8-4.8 4.8-1.6 9.6-3.2 16-3.2h33.6l46.4-336c0-40 36.8-73.6 81.6-73.6h332.8c44.8 0 81.6 32 81.6 73.6l46.4 336h35.2c3.2 0 4.8 1.6 8 1.6 17.6 6.4 28.8 20.8 28.8 38.4v73.6c1.6 24-19.2 43.2-44.8 43.2z"  horiz-adv-x="1024" />

    
    <glyph glyph-name="wodejiaohuhou" unicode="&#58935;" d="M512 778.666667c98.133333 0 179.2-81.066667 179.2-179.2s-81.066667-179.2-179.2-179.2-179.2 81.066667-179.2 179.2 81.066667 179.2 179.2 179.2M608 277.333333c64 0 125.866667-25.6 170.666667-72.533333 46.933333-46.933333 74.666667-110.933333 72.533333-181.333333v-14.933334c-32-21.333333-174.933333-21.333333-245.333333-21.333333h-192c-81.066667 0-215.466667 0-245.333334 19.2V21.333333c2.133333 142.933333 113.066667 256 247.466667 256h192M512 832c-128 0-232.533333-104.533333-232.533333-232.533333S384 366.933333 512 366.933333s232.533333 104.533333 232.533333 232.533334S640 832 512 832z m96-501.333333h-192c-164.266667 0-298.666667-136.533333-298.666667-305.066667v-19.2c0-68.266667 132.266667-68.266667 298.666667-68.266667h192c164.266667 0 298.666667 2.133333 298.666667 68.266667v19.2c0 168.533333-134.4 305.066667-298.666667 305.066667z"  horiz-adv-x="1024" />

    
    <glyph glyph-name="weizhi" unicode="&#58936;" d="M512 896C294.4 896 117.333333 718.933333 117.333333 501.333333c0-81.066667 23.466667-157.866667 70.4-224 2.133333-4.266667 4.266667-8.533333 6.4-10.666666l288-379.733334c8.533333-10.666667 19.2-14.933333 29.866667-14.933333 10.666667 0 21.333333 4.266667 29.866667 14.933333l288 377.6c2.133333 4.266667 4.266667 8.533333 6.4 10.666667 46.933333 66.133333 70.4 145.066667 70.4 226.133333C906.666667 718.933333 729.6 896 512 896z m0-535.466667c-76.8 0-140.8 64-140.8 140.8 0 76.8 64 140.8 140.8 140.8s140.8-64 140.8-140.8c0-78.933333-64-140.8-140.8-140.8z"  horiz-adv-x="1024" />

    
    <glyph glyph-name="xiaoxi" unicode="&#58937;" d="M832 768H192C121.6 768 64 710.4 64 640v-384c0-70.4 57.6-128 128-128h128v-64c0-25.6 12.8-44.8 35.2-57.6 9.6-3.2 19.2-6.4 28.8-6.4 12.8 0 25.6 3.2 38.4 12.8l150.4 115.2H832c70.4 0 128 57.6 128 128V640c0 70.4-57.6 128-128 128z m64-512c0-35.2-28.8-64-64-64h-272c-6.4 0-12.8-3.2-19.2-6.4L384 64v96c0 19.2-12.8 32-32 32H192c-35.2 0-64 28.8-64 64V640c0 35.2 28.8 64 64 64h640c35.2 0 64-28.8 64-64v-384z m-576 256c-35.2 0-64-28.8-64-64s28.8-64 64-64 64 28.8 64 64-28.8 64-64 64z m192 0c-35.2 0-64-28.8-64-64s28.8-64 64-64 64 28.8 64 64-28.8 64-64 64z m192 0c-35.2 0-64-28.8-64-64s28.8-64 64-64 64 28.8 64 64-28.8 64-64 64z"  horiz-adv-x="1024" />

    
    <glyph glyph-name="shouyi" unicode="&#58938;" d="M512-24C310.4-24 145.6 102.4 145.6 256c0 104 81.6 254.4 206.4 331.2-19.2 20.8-28.8 46.4-28.8 72 0 75.2 84.8 132.8 192 132.8s192-59.2 192-132.8c0-27.2-11.2-51.2-30.4-73.6C800 508.8 881.6 360 881.6 256c-3.2-153.6-168-280-369.6-280z m1.6 764.8c-76.8 0-140.8-38.4-140.8-81.6 0-27.2 24-46.4 36.8-54.4 8-4.8 12.8-14.4 11.2-24 0-9.6-6.4-17.6-14.4-20.8-123.2-60.8-209.6-208-209.6-304 0-124.8 140.8-227.2 315.2-227.2S827.2 129.6 827.2 256c0 96-86.4 243.2-209.6 302.4-12.8 6.4-17.6 20.8-12.8 33.6 1.6 4.8 4.8 8 9.6 11.2 14.4 9.6 38.4 28.8 38.4 56 0 43.2-64 81.6-139.2 81.6zM520 326.4c-6.4 0-12.8 3.2-17.6 8l-83.2 83.2c-9.6 9.6-9.6 25.6 0 35.2s25.6 9.6 35.2 0l83.2-83.2c9.6-9.6 9.6-25.6 0-36.8-4.8-4.8-11.2-6.4-17.6-6.4zM520 326.4c-9.6 0-19.2 6.4-24 16-3.2 9.6-1.6 20.8 4.8 27.2l83.2 83.2c9.6 9.6 25.6 9.6 35.2 0s9.6-25.6 0-35.2l-83.2-83.2c-3.2-6.4-9.6-8-16-8zM606.4 312H417.6c-14.4 0-25.6 11.2-25.6 25.6 0 14.4 11.2 25.6 25.6 25.6h187.2c14.4 0 25.6-11.2 25.6-25.6 1.6-14.4-9.6-25.6-24-25.6z m0-91.2H417.6c-14.4 0-25.6 11.2-25.6 25.6 0 14.4 11.2 25.6 25.6 25.6h187.2c14.4 0 25.6-11.2 25.6-25.6 1.6-14.4-9.6-25.6-24-25.6zM520 123.2c-14.4 0-25.6 11.2-25.6 25.6V321.6c0 14.4 11.2 25.6 25.6 25.6 14.4 0 25.6-11.2 25.6-25.6v-172.8c0-14.4-11.2-25.6-25.6-25.6z"  horiz-adv-x="1024" />

    
    <glyph glyph-name="tuiguang" unicode="&#58939;" d="M611.2 676.8H412.8c-9.6 0-19.2 3.2-24 9.6l-81.6 70.4c-6.4 11.2 6.4 22.4 24 22.4h361.6c17.6 0 28.8-11.2 24-22.4L633.6 688c-3.2-6.4-12.8-11.2-22.4-11.2z m24-30.4H388.8C238.4 595.2 123.2 408 123.2 244.8c0-204.8 184-256 388.8-256s388.8 51.2 388.8 256c0 163.2-115.2 352-265.6 401.6z m-30.4-339.2c11.2 0 20.8-9.6 20.8-20.8s-9.6-20.8-20.8-20.8h-73.6v-78.4c0-11.2-9.6-20.8-20.8-20.8s-20.8 9.6-20.8 20.8v78.4H416c-11.2 0-20.8 9.6-20.8 20.8s9.6 20.8 20.8 20.8h73.6v17.6H416c-11.2 0-20.8 9.6-20.8 20.8s9.6 20.8 20.8 20.8h64L416 432c-8 8-8 20.8 0 28.8s20.8 8 28.8 0l67.2-67.2 67.2 67.2c8 8 20.8 8 28.8 0s8-20.8 0-28.8l-67.2-67.2h64c11.2 0 20.8-9.6 20.8-20.8s-9.6-20.8-20.8-20.8h-73.6v-17.6c1.6 1.6 73.6 1.6 73.6 1.6z"  horiz-adv-x="1024" />

    
    <glyph glyph-name="zhifubao" unicode="&#58940;" d="M902.095 243.129l-250.96 84.392s19.287 28.87 39.874 85.472c20.59 56.606 23.539 87.689 23.539 87.689l-162.454 1.339v55.487l196.739 1.387v39.227H552.055v89.29h-96.358v-89.294H272.133v-39.227l183.564 1.304v-59.513h-147.24v-31.079h303.064s-3.337-25.223-14.955-56.606c-11.615-31.38-23.58-58.862-23.58-58.862s-142.3 49.804-217.285 49.804c-74.985 0-166.182-30.123-175.024-117.55-8.8-87.383 42.481-134.716 114.728-152.139 72.256-17.513 138.962 0.173 197.04 28.607 58.087 28.391 115.081 92.933 115.081 92.933l292.486-142.041c-11.932-69.3-72.067-119.914-142.387-119.844H266.37c-79.714-0.078-144.392 64.483-144.466 144.194V629.626c-0.074 79.72 64.493 144.399 144.205 144.47h491.519c79.714 0.073 144.396-64.49 144.466-144.203v-386.764z m-365.76 48.895s-91.302-115.262-198.879-115.262c-107.623 0-130.218 54.767-130.218 94.155 0 39.34 22.373 82.144 113.943 88.333 91.519 6.18 215.2-67.226 215.2-67.226h-0.047z"  horiz-adv-x="1024" />

    
    <glyph glyph-name="yiwancheng" unicode="&#58941;" d="M472-64H174.4c-44.8 0-80 35.2-80 80V753.6c0 44.8 35.2 80 80 80H848c44.8 0 80-35.2 80-80v-451.2c0-16 12.8-28.8 28.8-28.8s28.8 12.8 28.8 28.8V755.2C985.6 832 923.2 896 846.4 896H177.6C100.8 896 38.4 832 38.4 755.2v-742.4c0-76.8 62.4-139.2 139.2-139.2h296c16 0 28.8 12.8 28.8 28.8v4.8c-1.6 16-14.4 28.8-30.4 28.8zM713.6 595.2h-400c-17.6 0-32 14.4-32 32v1.6c0 17.6 14.4 30.4 32 30.4h400c17.6 0 32-14.4 32-30.4v-1.6c-1.6-17.6-16-32-32-32z m0-241.6h-400c-17.6 0-32 14.4-32 32v1.6c0 17.6 14.4 32 32 32h400c17.6 0 32-14.4 32-32v-1.6c-1.6-17.6-16-32-32-32zM470.4 112h-156.8c-17.6 0-32 14.4-32 32v1.6c0 17.6 14.4 32 32 32h156.8c17.6 0 32-14.4 32-32v-1.6c0-17.6-14.4-32-32-32z m230.4-230.4l-88 80c-12.8 11.2-14.4 32-3.2 44.8l1.6 1.6c11.2 12.8 32 14.4 44.8 3.2l88-80c12.8-11.2 14.4-32 3.2-44.8l-1.6-1.6c-11.2-14.4-32-14.4-44.8-3.2zM699.2-72l222.4 233.6c11.2 12.8 32 12.8 44.8 1.6l1.6-1.6c12.8-11.2 12.8-32 1.6-44.8l-224-233.6c-11.2-12.8-32-12.8-44.8-1.6l-1.6 1.6c-11.2 11.2-11.2 32 0 44.8zM468.8-128H184C100.8-128 32-59.2 32 24v720C32 827.2 100.8 896 184 896h656C923.2 896 992 827.2 992 744v-425.6c0-17.6-14.4-32-32-32s-32 14.4-32 32V744c0 48-40 88-88 88h-656C136 832 96 792 96 744v-720c0-48 40-88 88-88h284.8c17.6 0 32-14.4 32-32s-14.4-32-32-32z"  horiz-adv-x="1024" />

    
    <glyph glyph-name="jingqu-2" unicode="&#58942;" d="M136.5 6.7c0-28.6 18.3-51.7 40.9-51.7H857c22.6 0 40.9 23.1 40.9 51.7H136.5zM924.9-10.9H109.5c-15.2 0-27 15.4-27 34.1L96 40.3h842.8l13.5-17.1c0-18.7-12.2-34.1-27.4-34.1zM908.1 188.1h-29.2v58.4H835V420.8h90.4c8.2 0 14.6 6.4 14.6 14.6s-6.4 14.6-14.6 14.6h-2.7c-56.6 0-83.1 90.4-86.7 103.1v42h86.7c8.2 0 14.6 6.4 14.6 14.6s-6.4 14.6-14.6 14.6c-88.5 0-167.9 98.6-176.2 109.5l-28.3 56.6c-4.6 7.3-13.7 9.1-21 5.5-1.8-0.9-3.7-2.7-5.5-5.5l-24.6-50.2H337.6L313 790.5c-4.6 7.3-13.7 9.1-21 5.5-1.8-0.9-3.7-2.7-5.5-5.5l-28.3-56.6c-9.1-11-89.4-109.5-176.2-109.5-8.2 0-14.6-6.4-14.6-14.6s6.4-14.6 14.6-14.6h86.7v-42c-3.7-12.8-31-103.1-88.5-103.1-8.2 0-14.6-6.4-14.6-14.6s6.4-14.6 14.6-14.6h88.5v-174.3H125v-58.4H95.7v-58.4H66.5V43h869.8v86.7H908v58.4z m-57.5 29.2v-29.2h-189v29.2h189zM720 246.5v72.1c0 23.7 19.2 43.8 43.8 43.8 23.7 0 43.8-19.2 43.8-43.8v-72.1H720z m138.8 202.6h-82.1l-11 86.7h44.7c10-31.9 26.5-62 48.4-86.7zM748.3 565v29.2h58.4V565h-58.4z m-72.1 145.2c5.5 0 11 2.7 12.8 8.2l15.5 31.9 15.5-31.9c0-0.9 0.9-1.8 1.8-1.8 29.2-36.5 63.9-68.5 104-93.1H771l-39.2 52-22.8-17.3 26.5-34.7h-48.4l-32.9 86.7h22z m59.4-173.5l11-86.7H689l-11 86.7h57.6zM690.8 565v29.2H720V565h-29.2z m-87.6 0v29.2h58.4V565h-58.4z m56.6-115h-57.5l-11 86.7h57.5l11-86.7z m-36.5 260.2l32.9-86.7h-54.8l-21.9 86.7h43.8zM545.7 565v29.2h29.2V565h-29.2z m27.4-115h-55.7v86.7h44.7l11-86.7z m-55.7 260.2h31.9l21.9-86.7h-53.8v86.7z m0-145.2h-29.2v29.2h29.2V565z m-61.1 145.2h31.9v-86.7h-53.8l21.9 86.7z m-26.5-116H459V565h-29.2v29.2z m57.5-57.5V450h-55.7l11 86.7h44.7z m-61.2 173.5l-21.9-86.7h-54.8l32.9 86.7h43.8z m-70.2-173.5h57.5l-11-86.7h-57.5l11 86.7zM343.1 565v29.2h58.4V565h-58.4z m-61.2 150.6c0.9 0.9 0.9 1.8 1.8 2.7l15.5 31.9 16.4-31.9c2.7-4.6 7.3-8.2 12.8-8.2h22.8l-32.9-86.7h-48.4l26.5 34.7-22.8 17.3-39.2-52h-56.6c40.2 24.7 74.9 55.7 104.1 92.2z m44.8-178.9l-11-86.7h-57.5l11 86.7h57.5z m-42 28.3v29.2h29.2V565h-29.2z m-28.3 29.2V565H198v29.2h58.4zM145.9 449.1c22.8 24.6 39.2 54.8 48.4 86.7H239l-11-86.7h-82.1zM198 318.6c0 23.7 19.2 43.8 43.8 43.8 23.7 0 43.8-19.2 43.8-43.8v-72.1h-86.7v72.1h-0.9z m-42.9-101.3h188v-29.2h-188v29.2z m-29.2-57.5h188v-29.2h-188v29.2z m158.8-87.6h-188v29.2h188v-29.2z m174.3 0H313.9v29.2H459v-29.2z m0 58.4H343.1v29.2H459v-29.2z m0 57.5h-86.7v29.2H459v-29.2z m0.9 58.4h-87.6v72.1c0 23.7 19.2 43.8 43.8 43.8 24.6 0 43.8-19.2 43.8-43.8v-72.1z m57.5-174.3h-29.2v29.2h29.2v-29.2z m0 58.4h-29.2v29.2h29.2v-29.2z m0 57.5h-29.2v29.2h29.2v-29.2z m0 131.4v-72.1h-29.2v72.1c0 40.2-32.9 72.1-72.1 72.1-40.2 0-72.1-32.9-72.1-72.1v-72.1h-29.2v72.1c0 40.2-32.9 72.1-72.1 72.1-15.5 0-31-5.5-43.8-14.6v43.8h607.9V377c-12.8 10-27.4 14.6-43.8 14.6-40.2 0-72.1-32.9-72.1-72.1v-72.1h-29.2v72.1c0 40.2-32.9 72.1-72.1 72.1-40.2 0-72.2-32.8-72.2-72.1z m28.3-73v72.1c0 23.7 19.2 43.8 43.8 43.8 23.7 0 43.8-19.2 43.8-43.8v-72.1h-87.6z m87.6-29.2v-29.2h-86.7v29.2h86.7z m28.3-57.5v-29.2H545.7v29.2h115.9z m29.2-87.6H545.7v29.2h145.1v-29.2z m0.9 87.6h188v-29.2h-188v29.2z m216.4-87.6H720v29.2h188v-29.2zM748.3 594.2h58.4V565h-58.4z m-57.5 0H720V565h-29.2z m-87.6 0h58.4V565h-58.4z m-57.5 0h29.2V565h-29.2z m-57.5 0h29.2V565h-29.2z m-58.4 0H459V565h-29.2z m-86.7 0h58.4V565h-58.4z m-58.4 0h29.2V565h-29.2z m-86.7 0h58.4V565H198z m-72.1-434.4h188v-29.2h-188z m-29.2-58.4h188v-29.2h-188z m217.2 0H459v-29.2H313.9z m406.1 0h188v-29.2H720z m-174.3 0h145.1v-29.2H545.7z m0 58.4h115.9v-29.2H545.7z m-202.6 0H459v-29.2H343.1z m29.2 57.5H459v-29.2h-86.7z m174.3 0h86.7v-29.2h-86.7z m-391.5 0h188v-29.2h-188z m506.5 0h188.9v-29.2H661.6z m30.1-57.5h188v-29.2h-188zM746.5 450H689l-10.9 86.7h57.5z m112.3-0.9h-82.1l-11 86.7h44.7c10-31.9 26.5-62 48.4-86.7z m-199 0.9h-57.5l-11 86.7h57.5z m-86.7 0h-55.7v86.7h44.7z m-85.8 86.7V450h-55.7l11 86.7z m-73.9 0l-11-86.7h-57.5l11 86.7z m-86.7 0l-11-86.7h-57.5l11 86.7z m-87.7-0.9l-11-86.7h-82.1c22.8 24.6 39.2 54.8 48.4 86.7H239zM806.7 420.8V377c-12.8 10-27.4 14.6-43.8 14.6-40.2 0-72.1-32.9-72.1-72.1v-72.1h-29.2v72.1c0 40.2-32.9 72.1-72.1 72.1-40.2 0-72.1-32.9-72.1-72.1v-72.1h-29.2v72.1c0 40.2-32.9 72.1-72.1 72.1-40.2 0-72.1-32.9-72.1-72.1v-72.1h-29.2v72.1c0 40.2-32.9 72.1-72.1 72.1-15.5 0-31-5.5-43.8-14.6v43.8h607.8zM731.9 675.5l-22.8-17.3 26.5-34.7h-48.4l-32.9 86.7h21.9c5.5 0 11 2.7 12.8 8.2l15.5 31.9 15.5-31.9c0-0.9 0.9-1.8 1.8-1.8 29.2-36.5 63.9-68.5 104-93.1H771l-39.1 52z m-75.8-52.1h-54.7l-21.9 86.8h43.8z m-84.8 0h-53.9v86.8h32z m-83.1 86.8v-86.8h-53.8l21.9 86.8z m-62.1 0l-21.9-86.8h-54.7l32.8 86.8z m-74.8 0l-32.9-86.7H270l26.5 34.7-22.8 17.3-39.2-52h-56.6c40.2 24.6 74.8 55.7 104 92.2 0.9 0.9 0.9 1.8 1.8 2.7l15.5 31.9 16.4-31.9c2.7-4.6 7.3-8.2 12.8-8.2h22.9z"  horiz-adv-x="1024" />

    
    <glyph glyph-name="tuiguangshangpin" unicode="&#58943;" d="M964.8 392c0-59.2-9.6-113.6-30.4-166.4-20.8-52.8-49.6-97.6-86.4-137.6-36.8-40-80-73.6-131.2-99.2-51.2-25.6-104-41.6-163.2-48-16-1.6-32-3.2-49.6-4.8s-36.8-3.2-57.6-3.2h-70.4c-25.6 0-54.4 1.6-86.4 4.8-70.4 6.4-123.2 16-158.4 27.2S84.8-17.6 91.2-16c19.2 3.2 36.8 8 51.2 12.8s28.8 11.2 41.6 19.2c14.4 8 19.2 17.6 17.6 32-1.6 14.4-9.6 27.2-19.2 40-33.6 38.4-62.4 83.2-83.2 132.8C75.2 270.4 64 324.8 62.4 384c0 62.4 11.2 120 33.6 174.4s54.4 102.4 96 144 88 73.6 142.4 97.6 113.6 36.8 176 36.8c62.4 0 120-11.2 176-33.6s102.4-54.4 144-96c41.6-40 73.6-88 97.6-142.4 24-52.8 35.2-110.4 36.8-172.8zM576 259.2v57.6h144c14.4 1.6 24 4.8 32 8 8 4.8 11.2 12.8 12.8 25.6-1.6 12.8-6.4 22.4-12.8 27.2-6.4 4.8-17.6 9.6-32 9.6h-100.8l96 148.8c4.8 6.4 9.6 14.4 14.4 24s6.4 19.2 6.4 25.6c-3.2 22.4-9.6 35.2-19.2 41.6-9.6 4.8-22.4 9.6-36.8 9.6-12.8-1.6-22.4-4.8-32-11.2s-19.2-20.8-32-44.8c-6.4-12.8-14.4-28.8-25.6-48s-22.4-40-33.6-59.2c-12.8-22.4-27.2-46.4-41.6-72-12.8 24-25.6 46.4-38.4 68.8-9.6 19.2-20.8 36.8-30.4 56-9.6 19.2-17.6 35.2-22.4 46.4-11.2 22.4-22.4 38.4-32 48-9.6 9.6-20.8 16-32 17.6-20.8-3.2-35.2-8-43.2-17.6s-12.8-20.8-16-33.6c0-11.2 1.6-22.4 6.4-32 4.8-9.6 9.6-17.6 16-24l83.2-144h-99.2c-14.4-1.6-24-4.8-32-9.6s-11.2-14.4-12.8-27.2c1.6-12.8 6.4-20.8 12.8-25.6s17.6-8 32-9.6l137.6-1.6v-56h-137.6c-14.4-1.6-24-3.2-32-8-6.4-3.2-11.2-12.8-12.8-25.6 1.6-12.8 6.4-20.8 12.8-25.6 6.4-4.8 17.6-6.4 32-8h137.6v-65.6c1.6-43.2 24-64 67.2-64 22.4 0 38.4 4.8 48 16 9.6 11.2 16 27.2 17.6 48V192l145.6-1.6c14.4 1.6 24 3.2 32 6.4 6.4 3.2 11.2 11.2 12.8 22.4-1.6 12.8-6.4 22.4-12.8 27.2-6.4 4.8-17.6 8-32 9.6H576z"  horiz-adv-x="1024" />

    


  </font>
</defs>
</svg>
